#!OML:ASF E:\Mandelcareful walks\Project 1\Capture day 1\Session 1\Subject1.ASF
:FULLY-SPECIFIED
:DEGREES
835
root 34.3264 13.3058 4.6686 524.483 75.3288 868.972
lowerback 41.3117 -1.38025 -1.70034
upperback 8.04527 -1.47363 -3.61807
thorax -10.8967 -0.0100349 -2.49895
lowerneck -26.2663 11.6729 4.36769
upperneck 12.236 20.6702 -24.9301
head 11.9351 7.43359 -5.67328
rclavicle -1.37161e-014 1.22253e-014
rhumerus -30.4752 33.5024 -86.1161
rradius 63.0503
rwrist -79.7966
rhand -0.765649 -34.8587
rfingers 7.12502
rthumb 24.8568 -783.263
lclavicle -1.37161e-014 1.22253e-014
lhumerus 77.3906 -80.1763 15.68
lradius 59.8925
lwrist 20.4796
lhand -20.4968 5.07701
lfingers 7.12502
lthumb 5.86016 34.976
rfemur -47.8251 -13.8011 -9.76215
rtibia 77.2421
rfoot -28.2332 -14.9101
rtoes -33.0429
lfemur -71.3155 23.3461 -22.8521
ltibia 73.0038
lfoot -9.35885 12.7432
ltoes -4.96174
836
root 34.3728 13.2628 4.42383 527.873 75.2651 872.106
lowerback 41.0648 -1.27207 -1.78371
upperback 8.0271 -1.38118 -3.63476
thorax -10.8339 0.027105 -2.51176
lowerneck -26.6681 11.8896 3.82131
upperneck 12.3909 21.0303 -24.3293
head 11.9584 7.56991 -5.27103
rclavicle -1.66482e-014 -4.5969e-014
rhumerus -30.3719 32.9386 -86.2442
rradius 61.9255
rwrist -79.4663
rhand 0.689792 -33.9992
rfingers 7.12502
rthumb 26.2509 -782.203
lclavicle -1.66482e-014 -4.5969e-014
lhumerus 81.1707 -80.189 12.476
lradius 58.8354
lwrist 20.525
lhand -19.8084 5.09598
lfingers 7.12502
lthumb 6.5248 34.9755
rfemur -46.8152 -13.8633 -10.0743
rtibia 76.3329
rfoot -28.155 -15.1509
rtoes -34.3622
lfemur -72.4743 22.7828 -23.0101
ltibia 74.9165
lfoot -10.6566 12.5657
ltoes -5.78767
837
root 34.434 13.2396 4.1769 530.324 75.2947 874.765
lowerback 41.3144 -1.05474 -2.0855
upperback 8.05075 -1.23134 -3.67663
thorax -10.8708 0.10943 -2.46741
lowerneck -26.5267 12.117 3.82886
upperneck 12.0332 21.2518 -24.3726
head 11.8383 7.70763 -5.22724
rclavicle -7.62836e-015 1.83006e-014
rhumerus -30.0728 32.9775 -86.3818
rradius 59.9911
rwrist -79.5977
rhand 2.04909 -33.6757
rfingers 7.12502
rthumb 27.5515 -781.679
lclavicle -7.62836e-015 1.83006e-014
lhumerus 85.4591 -80.2436 8.77458
lradius 57.7662
lwrist 20.54
lhand -19.0441 5.46584
lfingers 7.12502
lthumb 7.26259 35.3212
rfemur -45.2227 -13.6176 -10.506
rtibia 75.156
rfoot -27.9915 -15.4456
rtoes -35.8497
lfemur -72.739 22.4242 -22.9811
ltibia 76.6081
lfoot -12.274 12.2638
ltoes -5.2596
838
root 34.4776 13.2035 3.92244 530.831 75.6731 875.199
lowerback 41.1525 -0.561988 -2.85461
upperback 8.11431 -0.96058 -3.96842
thorax -10.7213 0.252976 -2.49886
lowerneck -26.5872 12.2925 3.86242
upperneck 11.8494 21.3702 -24.2065
head 11.7701 7.78425 -5.13687
rclavicle -3.08116e-014 -4.99943e-014
rhumerus -29.6896 31.366 -86.5887
rradius 58.2955
rwrist -78.5386
rhand 2.61575 -36.2941
rfingers 7.12502
rthumb 28.0933 -784.21
lclavicle -3.08116e-014 -4.99943e-014
lhumerus 91.6175 -80.1567 3.13662
lradius 56.6967
lwrist 20.5978
lhand -18.356 5.81772
lfingers 7.12502
lthumb 7.92675 35.6491
rfemur -44.2908 -13.3946 -11.4173
rtibia 73.9176
rfoot -27.4723 -15.3782
rtoes -36.9011
lfemur -73.2496 22.4318 -23.5734
ltibia 78.2078
lfoot -13.9094 11.8923
ltoes -3.87891
839
root 34.5244 13.1976 3.67455 531.165 76.0452 876.008
lowerback 41.7726 0.0324382 -3.44859
upperback 8.135 -0.515802 -4.39427
thorax -10.8704 0.491363 -2.85734
lowerneck -26.3878 12.3419 4.42784
upperneck 11.7672 21.1247 -24.0255
head 11.691 7.72931 -5.22423
rclavicle -1.27222e-014 -1.95803e-014
rhumerus -29.4966 30.3174 -87.0803
rradius 56.1023
rwrist -78.5057
rhand 2.94698 -36.0829
rfingers 7.12502
rthumb 28.4099 -783.947
lclavicle -1.27222e-014 -1.95803e-014
lhumerus 102.135 -79.8388 -6.93892
lradius 55.6725
lwrist 20.9499
lhand -17.5175 5.93258
lfingers 7.12502
lthumb 8.73596 35.7318
rfemur -42.5609 -12.8169 -12.1877
rtibia 72.3868
rfoot -27.1646 -15.313
rtoes -37.3351
lfemur -72.9056 22.7246 -23.9785
ltibia 79.5446
lfoot -15.4208 11.2659
ltoes -2.62658
